# xmcd
#
# Track frame offsets:
#	150
#	16795
#	56054
#	102101
#	116552
#	140688
#	157213
#	181963
#	196245
#	227001
#	235772
#
# Disc length: 3421 seconds
#
# Revision: 1
# Processed by: cddbd v1.5.2PL0 Copyright (c) Steve Scherf et al.
# Submitted via: dBpowerAMP V4.0
#
DISCID=8e0d5b0b
DTITLE=Kitaro - Spiritual Garden
DYEAR=2006
DGENRE=New Age
TTITLE0=Gentle Forest
TTITLE1=The Stone and the Green World
TTITLE2=Sunlight Dancing
TTITLE3=Moon Flower
TTITLE4=Wind and Water
TTITLE5=Moon Shadow
TTITLE6=Love for Elka
TTITLE7=Hydrosphere
TTITLE8=Quasar
TTITLE9=White Night
TTITLE10=Spiritual Garden
EXTD=
EXTT0=
EXTT1=
EXTT2=
EXTT3=
EXTT4=
EXTT5=
EXTT6=
EXTT7=
EXTT8=
EXTT9=
EXTT10=
PLAYORDER=
